<svg xmlns="http://www.w3.org/2000/svg" viewBox="0 0 320 640" role="img" aria-labelledby="t d">
<title id="t">Viza — carte du monde à gratter</title>
<desc id="d">Carte du monde stylisée avec les pays déjà visités grattés en turquoise, et un score de progression.</desc>
<rect width="320" height="640" rx="34" fill="#fdfcf9"/>
<rect x="0" y="0" width="320" height="72" fill="#8fb2ea"/>
<text x="24" y="44" font-family="'Space Grotesk', Arial, sans-serif" font-weight="700" font-size="20" fill="#14151a">&#9992; Ma carte</text>
<rect x="24" y="96" width="272" height="240" rx="18" fill="#eef3fc" stroke="#14151a" stroke-width="3"/>
<path d="M40,120 C60,100 100,95 120,115 C140,130 130,160 100,165 C70,170 30,150 40,120 Z" fill="#c9d7f2" stroke="#14151a" stroke-width="2.5"/>
<path d="M70,190 C90,185 105,210 95,240 C88,265 65,270 60,240 C56,215 55,195 70,190 Z" fill="#c9d7f2" stroke="#14151a" stroke-width="2.5"/>
<path d="M170,110 C200,95 235,100 245,125 C255,150 230,165 205,160 C185,156 160,130 170,110 Z" fill="#5be7db" stroke="#14151a" stroke-width="2.5"/>
<path d="M175,175 C195,170 210,190 205,215 C200,238 175,240 168,215 C162,195 165,180 175,175 Z" fill="#c9d7f2" stroke="#14151a" stroke-width="2.5"/>
<path d="M255,225 C270,220 285,230 280,245 C276,258 258,258 252,246 C248,236 248,228 255,225 Z" fill="#5be7db" stroke="#14151a" stroke-width="2.5"/>

<rect x="24" y="352" width="130" height="86" rx="16" fill="#5be7db" stroke="#14151a" stroke-width="2.5"/>
<text x="40" y="382" font-family="'Space Grotesk', Arial, sans-serif" font-weight="700" font-size="26" fill="#14151a">24</text>
<text x="40" y="404" font-family="Poppins, Arial, sans-serif" font-size="12" fill="#14151a">pays visit&#233;s</text>
<rect x="166" y="352" width="130" height="86" rx="16" fill="#fdfcf9" stroke="#14151a" stroke-width="2.5"/>
<text x="182" y="382" font-family="'Space Grotesk', Arial, sans-serif" font-weight="700" font-size="26" fill="#14151a">13%</text>
<text x="182" y="404" font-family="Poppins, Arial, sans-serif" font-size="12" fill="#5b5c66">du monde</text>
<rect x="24" y="456" width="272" height="52" rx="26" fill="#14151a"/>
<text x="160" y="488" text-anchor="middle" font-family="'Space Grotesk', Arial, sans-serif" font-weight="700" font-size="14" fill="#fdfcf9">+ Ajouter un pays</text>
</svg>
